<?xml version="1.0" encoding="UTF-8"?>
<svg width="1200pt" height="1200pt" version="1.1" viewBox="0 0 1200 1200" xmlns="http://www.w3.org/2000/svg">
 <path d="m822.61 203.26c0-45.891 37.406-83.25 83.344-83.25s83.344 37.359 83.344 83.25c0 45.891-37.406 83.203-83.344 83.203s-83.344-37.359-83.344-83.203z"/>
 <path d="m210.71 203.26c0-45.891 37.359-83.25 83.344-83.25 45.938 0 83.344 37.359 83.344 83.25 0 45.891-37.406 83.203-83.344 83.203-45.984 0-83.344-37.359-83.344-83.203z"/>
 <path d="m823.97 521.11-180.98-204.28h201.84l181.03 204.28z"/>
 <path d="m354.94 521.11-180.79-204.28h199.78l180.79 204.28z"/>
 <path d="m588.47 521.11-180.79-204.28h201.56l180.98 204.28z"/>
 <path d="m120 316.82h20.391l180.79 204.28h-201.19z"/>
 <path d="m323.63 1080h-59.156c-13.922 0-25.266-11.344-25.266-25.266v-508.36h109.69v508.4c0 13.875-11.344 25.219-25.266 25.219z"/>
 <path d="m960.79 1054.7c0 13.922-11.344 25.266-25.266 25.266h-59.156c-13.922 0-25.266-11.344-25.266-25.266l0.046875-508.36h109.69z"/>
 <path d="m1080 521.11h-20.391l-180.98-204.28h201.37z"/>
</svg>
